# xmcd
#
# Track frame offsets:
#	150
#	12503
#	26890
#	38441
#	53724
#	68422
#	76454
#	96666
#	113169
#	129365
#	146767
#	171741
#
# Disc length: 2533 seconds
#
# Revision: 1
# Processed by: cddbd v1.5.2PL0 Copyright (c) Steve Scherf et al.
# Submitted via: audiograbber 1.83.01
#
DISCID=a509e30c
DTITLE=Bill Gaither - Christmas In The Country
DYEAR=2010
DGENRE=Christmas
TTITLE0=Angels We Have Heard On High/Hark! The Herald Angels Sing (Homecoming F
TTITLE0=riends)
TTITLE1=I Heard The Bells On Christmas Day (Gaither Vocal Band)
TTITLE2=Winter Wonderland (Homecoming Friends)
TTITLE3=Away In A Manger (The Booth Brothers)
TTITLE4=Glory To God In The Highest (Old Friends Quartet)
TTITLE5=God Rest Ye Merry Gentlemen (The Cathedrals)
TTITLE6=Hark! The Herald Angels Sing/O Come, All Ye Faithful (Greater Vision)
TTITLE7=I'll Be Home For Christmas (Gaither Vocal Band)
TTITLE8=Jesus, What A Wonderful Child (Joy Gardner)
TTITLE9=It's Still The Greatest Story Ever Told (Gaither Vocal Band)
TTITLE10=Christmas In The Country (Terry Blackwood, Lisa Daggs, Buddy Mullins, 
TTITLE10=Squire Parsons, Ann Downing, Sarah Delane)
TTITLE11=Hallelujah Chorus (Anthony Burger)
EXTD=
EXTT0=
EXTT1=
EXTT2=
EXTT3=
EXTT4=
EXTT5=
EXTT6=
EXTT7=
EXTT8=
EXTT9=
EXTT10=
EXTT11=
PLAYORDER=
